# xmcd
#
# Track frame offsets:
#	150
#	12995
#	28022
#	43623
#	57624
#	84488
#	116390
#	150327
#	177842
#	201544
#	215845
#	248116
#	273457
#	305966
#	320677
#	348585
#
# Disc length: 4677 seconds
#
# Revision: 0
# Processed by: cddbd v1.5.2PL0 Copyright (c) Steve Scherf et al.
# Submitted via: EasyCDDAExtractor 10.0.5.1
#
DISCID=f1124310
DTITLE=Vinylshakers - Daddy Cool
DYEAR=2006
DGENRE=Club-Pop
TTITLE0=Daddy_cool_(Screen_Cut)
TTITLE1=Club_Tropicana_(Screen_Cut)
TTITLE2=One_night_in_Bangkok_(Screen_Cut)
TTITLE3=Kylie_/vs.Mike_Austin/_(Screen_Cut)
TTITLE4=Got_no_reason_(Vinylshakers_thrust_mode_mix)
TTITLE5=Tekkno_trash_(Vinylshakers_pay_no_cash_mix)
TTITLE6=2_take_me_away_/vs.Marcus_Levin/_(Vinylshakers_remix)
TTITLE7=Talkin_2_the_night_/vs.Rico_Bass/_(Vinylshakers_remix)
TTITLE8=Yummy_yummy_song_/vs.Gift/_(Vinylshakers_remix)
TTITLE9=Love_changes_everything_/vs.Musikk/_(Vinylshakers_mix)
TTITLE10=Tempt_the_fade_/vs.Marcus_Levin/_(Vinylshakers_remix)
TTITLE11=Falling_star_/vs.Sunset_strippers/_(Vinylshakers_thrustmode_remix)
TTITLE12=Daddy_cool_(Vinylshakers_XXL_mix)
TTITLE13=Club_Tropicana_(vs.80ies_retro_mix)
TTITLE14=Dadd_cool_(Electrolaz_remix)
TTITLE15=One_night_in_Bangkok_(Snipped)
EXTD=
EXTT0=
EXTT1=
EXTT2=
EXTT3=
EXTT4=
EXTT5=
EXTT6=
EXTT7=
EXTT8=
EXTT9=
EXTT10=
EXTT11=
EXTT12=
EXTT13=
EXTT14=
EXTT15=
PLAYORDER=
